<svg xmlns="http://www.w3.org/2000/svg" viewBox="0 0 1920 1080"><defs><style>.cls-1{fill:#00d098;}.cls-2{fill:#ff9d45;}.cls-3{fill:#00b92f;}.cls-4{fill:#f60;}.cls-5{fill:#cc4300;}.cls-6{fill:#fcf;}.cls-7{fill:#fff;}.cls-8{fill:#84ccff;}.cls-9{fill:#8466ff;}.cls-10{fill:#8499ff;}.cls-11{fill:#063;}</style></defs><g id="Layer_2" data-name="Layer 2"><path class="cls-1" d="M827.67,514.64c126.58-29.33,257.11-36.37,386.87-43.31q-.15,21.75-1.67,43.45c-.9,12.85-2.19,25.83-6.47,38-3.34,9.48-8.42,18.23-13.47,26.91-21.35,36.64-43.13,73.52-72.28,104.32-8.58,9.06-17.91,17.66-28.94,23.5-10,5.32-21.17,8.2-32.33,10.31C983.3,732.21,901.24,711,841.72,661.42c-5.91-4.92-12-10.7-13.22-18.28"/><path class="cls-1" d="M829,519.39c49.28-10.62,99.41-18,149.5-23.48q37.57-4.12,75.26-7.19,18.87-1.52,37.75-2.78c12.59-.83,25.19-.69,37.78-1.45,28.42-1.71,56.86-3.1,85.28-4.76l-8.4-8.4c-.07,20-.1,40.69-3.06,60.55a93,93,0,0,1-7.8,26.58c-4,8.28-8.8,16.15-13.43,24.08-18.77,32.07-38.17,64.18-63.31,91.75-12,13.14-25,25.09-42.23,30.69-16.18,5.26-33.56,7.37-50.51,8.12-33.17,1.47-66.82-3.84-98.22-14.53a255,255,0,0,1-50.19-23.5,245.34,245.34,0,0,1-22.57-15.4c-6.45-5-15.23-10.64-17-19.1-2.57-12.15-21.21-7-18.63,5.14,2,9.39,8.57,16.55,15.72,22.53a268.4,268.4,0,0,0,21.93,16.5,274.43,274.43,0,0,0,48.31,25.77,268.33,268.33,0,0,0,105.36,20.68,275.76,275.76,0,0,0,54.65-5.94c19.66-4.18,36.72-12.25,51.57-25.89,29.28-26.91,51.23-61.56,71.42-95.48,11.19-18.8,24.28-37.9,29.08-59.56,5.23-23.63,5.4-48.89,5.72-73,.06-4.38-3.9-8.62-8.4-8.4q-38.3,1.86-76.55,4.3c-12.66.78-25.17,2.37-37.79,3.45-12.9,1.1-25.83,1.94-38.73,3-50.5,4.21-100.92,9.84-150.88,18.39-28.33,4.85-56.34,10.93-84.23,17.8-6.18,1.53-3.55,10.83,2.61,9.5Z"/><path class="cls-1" d="M842.71,507.56c-.24-.65,1.19-.48,1.07.2s-.95.93-1.63,1q-24,4.08-48.25,6.63l5.69,45.31c1,8.17,2.07,16.42,4.88,24.16,3.28,9,8.84,17,14.34,24.93q15.06,21.58,30.11,43.19a67.94,67.94,0,0,1-26.45-43.85l3.07,2.17"/><path class="cls-1" d="M844,509.83l.29-.23h-2.84l.46.31-1.52-2.65,0,.5,1.65-2.87c-.5.22-3.71-.52-4.76-.5-1.92,0-3.86.35-5.77.52-4.19.38-8.36.92-12.53,1.4-8.37,1-16.76,1.73-25.15,2.56-3.19.32-7,2.76-6.55,6.56q2.4,20.19,4.8,40.38c1.47,12.26,2.62,24.53,7.6,36,4.92,11.28,12.58,21.21,19.52,31.29q11.63,16.84,23.23,33.7l10.17-10.18a58.06,58.06,0,0,1-15-17.44,56.64,56.64,0,0,1-4.57-10.1c-1.31-3.87-1.63-8.19-3.2-11.91l-7.38,9.68,1.54,0c4,.1,7.92-4.35,6.37-8.36l-.53-1.36c-3.11-8-14.38-6.88-15,2-.69,9.29,5.2,20.71,10,28.37a80.66,80.66,0,0,0,20.37,21.9c5.91,4.43,14.34-4.27,10.17-10.18l-21.93-31.08c-6.92-9.81-14.6-19.47-20-30.23-5.17-10.26-6.25-21.89-7.72-33.12q-2.59-19.71-5.21-39.4L793.9,522c10.24-1.16,20.43-2.7,30.59-4.4,5.74-1,20.9-1.7,22.49-8.94a3.67,3.67,0,0,0-4.82-4.18,2.89,2.89,0,0,0-2.06,2.71v.39c-.05,1.81,2.34,3.51,3.95,2.27Z"/><path class="cls-1" d="M956.46,509.91c-3.47-5.27-11-5.37-17.33-4.89L795.27,516,820,508.84l-16.67,3.63,78.76-7.57a661.73,661.73,0,0,0-101.19,11.79A322.53,322.53,0,0,1,814,604.77c-19.62-23-11.42-59.88-27.84-85.27-1.19-1.85-2.77-3.77-5-4q8.53,33.24,18.75,66c6.08,19.49,12.84,39.3,25.57,55.25,10.12,12.68,24,22.93,30,38"/><path class="cls-1" d="M960.19,507.74c-6.21-10.94-20.31-9-30.91-8.62-14.79.51-29.57,1.39-44.34,2.33q-44.85,2.87-89.67,6.4l2.16,16q12.36-3.61,24.71-7.3c9.89-2.95,5.79-17.69-4.25-15.42-5.54,1.25-11.08,2.55-16.64,3.75-8.54,1.84-6.83,16.31,2.1,15.47L882.11,513c10.19-1,10.57-16.58,0-16.18a694,694,0,0,0-103.44,11.73c-5.55,1.06-7.46,8-5,12.41a324.45,324.45,0,0,1,32.13,86.1l14.32-8.34c-10.37-12.57-11.63-30.54-14.17-46-1.34-8.12-2.87-16.28-5.74-24-3-8.16-7.34-19.16-16.66-21.52a8.72,8.72,0,0,0-10.61,10.62Q779.13,542,786.21,566c4.34,14.66,8.59,29.47,14.37,43.64,5.47,13.44,12.27,25.93,21.85,36.91,8.43,9.69,19.59,18.41,24.66,30.55,1.81,4.35,5.77,7.45,10.72,6.09,4.1-1.12,7.92-6.35,6.09-10.72-5.46-13.07-14.78-22.79-24.37-33A111.51,111.51,0,0,1,817.31,605c-5.72-13.84-9.87-28.36-14.14-42.69q-7.27-24.42-13.63-49.12l-10.62,10.61c-.49-.12-.5-.67-.18,0a28.08,28.08,0,0,0,1.49,2.45,51.69,51.69,0,0,1,2.58,5.09,73.34,73.34,0,0,1,3.49,10.85c2,7.83,3.13,15.84,4.43,23.8,2.64,16.24,6.53,31.85,17.23,44.79,5.85,7.07,16-.69,14.33-8.34a332.65,332.65,0,0,0-34.08-90.07l-5.05,12.41a654.45,654.45,0,0,1,99-11.84V496.81l-78.76,7.79,2.09,15.47c5.56-1.22,11.14-2.35,16.7-3.52l-4.25-15.42q-12.4,3.48-24.79,7c-8.54,2.45-7.27,16.69,2.17,16q41.4-3,82.77-6.67c13.47-1.2,26.94-2.42,40.4-3.8,6.91-.71,13.79-1.66,20.69-2.4,4.51-.49,10.72-1.84,14.28,1.69s9.21-.94,6.78-5.22Z"/></g><g id="Layer_3" data-name="Layer 3"><path class="cls-2" d="M1097.39,261.39a91.61,91.61,0,0,1,26.78-6.41c2.14-.18,4.42-.26,6.31.76,4.23,2.26,4.21,8.24,3.55,13A658.17,658.17,0,0,1,1102.53,398c-2,5.54-4.49,11.59-9.84,14A1072.54,1072.54,0,0,1,1100,275.67c.89-7.53,2.06-15.52,7-21.25s15.06-7.61,19.86-1.76c3.65,4.45,2.75,11,1.5,16.58a330.9,330.9,0,0,1-14.21,47.14,194.74,194.74,0,0,0,.82-55.5c-15,21.36-6.49,50.71-11,76.41q2.44-31.2,6.8-62.21l-13.25,99.23,20.08-85.67-6.65,57.68c-.28,2.36-3.46,5.17-4.11,2.88"/><path class="cls-2" d="M1099,267.22a84.39,84.39,0,0,1,23.34-5.44c.64,0,4.21-.61,4.85-.08.08.07,0,1.32.12,1.6.76,2.82-.79,7.38-1.25,10.1-2.74,15.94-5.65,31.84-9.29,47.6-3.57,15.47-7.76,30.77-12.31,46q-3.54,11.85-7.53,23.57c-1.71,5-3,12.16-8.12,14.82l11.56,6.64a1031.62,1031.62,0,0,1,6.07-125.51c.87-7.84.87-17.36,4.72-24.47,1.72-3.18,9.46-8.78,10.5-2.26.57,3.54-.91,7.71-1.72,11.08q-1.79,7.37-3.89,14.65c-2.81,9.7-6.2,19.22-8.93,28.94l14.1,3.89a240,240,0,0,0,.67-57.44c-.7-6.91-8.76-9.23-12.85-3.48-16.33,23-8,52-12.18,77.93l14.47,2c.17-5.26-.47-10.32,0-15.59q.62-7.31,1.34-14.6c1-10.18,2-20.37,3.73-30.48l-11.22-3.09c-5.27,32.91-9.86,65.9-14.42,98.91-.53,3.79.92,7.5,4.91,8.65,3.48,1,7.87-1.21,8.65-4.91,6.06-28.71,13-57.2,19.82-85.75l-13.27-1.79-3.53,29.8-1.7,14.42-.91,7.69-.46,3.85a11.1,11.1,0,0,1,4.85-1.2l4.15,3.18-.42-.68c-4.67-7.6-16.67-.64-12,7,3.43,5.58,10.13,5.2,14.18.52,4.23-4.88,3.57-13.34,4.25-19.4l5.09-45.18c.85-7.59-11.57-9.13-13.27-1.8-6.61,28.58-13,57.2-20.35,85.6l13.81,1.87c4.26-33.05,8.48-66.09,12-99.23.8-7.45-10.8-7.36-11.63,0-1.17,10.37-2.67,20.69-3.9,31.05-.62,5.19-1.2,10.37-1.73,15.57s-2.06,10.32-2.72,15.59c-1,8.17,13.07,10.13,14.47,2,2.25-13.1,1.78-26.19,1.84-39.41,0-12.46,1.16-24.75,8-35.48l-12.59-1.65c2.55,17.26,1.64,34.58-1.23,51.72-.61,3.64.65,7.12,4.23,8.63,3.14,1.32,7.53.29,9.14-3A186.09,186.09,0,0,0,1136.74,267c1.15-7.78.27-16.14-6.14-21.49-6-5-14.33-5.12-21.21-2.08-16.1,7.12-16.57,27.05-18.15,42.08-2.07,19.69-3.55,39.44-4.64,59.2q-1.86,33.62-1.59,67.3c0,6,6.43,9.3,11.56,6.63,7.34-3.82,10.71-11.16,13.42-18.58,3.27-8.93,6.23-18,9-27.09,5.82-18.79,10.55-37.93,14.49-57.19,1.92-9.33,3.65-18.7,5.13-28.11,1.36-8.62,4-18.85,2.27-27.56-4.13-20.3-32.72-9.67-45.15-4.54-7,2.9-4.17,14.44,3.22,11.66Z"/><path class="cls-3" d="M1118.26,232.84l-2.77-44.29"/><path class="cls-3" d="M1122.82,234.1c3.28-8.44,1-19.36.48-28.22-.28-4.94.06-20.69-8.15-19.86-8,.81-5.58,15.83-5.24,20.83.61,9.1-.18,20.19,4.26,28.38,2.11,3.9,7.28,2.42,8.65-1.13Z"/><path class="cls-3" d="M1131.91,229.1a209,209,0,0,1,21.55-21.47"/><path class="cls-3" d="M1135.32,232.51c4.45-3.54,8.37-7.39,12.47-11.32,3.72-3.56,8.81-7.14,10.19-12.32.71-2.63-1.41-6.32-4.52-5.93-6,.75-10.28,5.43-14.38,9.55a72.39,72.39,0,0,0-11.34,14.17c-3,5,3.53,9.09,7.58,5.85Z"/><path class="cls-3" d="M1109.58,233.84a27.29,27.29,0,0,0-15.71-12.28"/><path class="cls-3" d="M1112.69,234.63c2.17-4.76-1-9.16-4.32-12.53a20.88,20.88,0,0,0-12-6.1c-3-.44-5.94.49-7.16,3.52a6.08,6.08,0,0,0,2.49,7.57,93.9,93.9,0,0,1,9.14,5.93c1.72,1.32,3.42,3.25,5.58,3.85s5.24-.07,6.23-2.24Z"/><path class="cls-4" d="M1085.19,347.07a22.82,22.82,0,0,1,21.77.28"/><path class="cls-4" d="M1087.25,350.59c4.5-1.92,11.35-1.13,15.72.94,6.51,3.09,12.11-6.8,5.62-9.62a29.7,29.7,0,0,0-13.15-2.8c-4.31.17-8.62,2.31-12.31,4.44-4.67,2.7-.57,9,4.12,7Z"/><path class="cls-4" d="M1135.61,312.7a14.54,14.54,0,0,0-12.54-1.21"/><path class="cls-4" d="M1138.53,309.79c-2.46-2.77-5.17-4.74-9-4.88-3.65-.14-8.16,1-9.23,4.89l1.16-2-.54.45c-2.3,1.9-1.18,6.57,1.85,7l.7.11-2-1.17c1.75,2.08,4.14,1.74,6.54,2,1.31.14,2.61.37,3.93.41a17.47,17.47,0,0,1,2.63.05,4.16,4.16,0,0,0,4-6.89Z"/><path class="cls-4" d="M1098.92,296a27.31,27.31,0,0,1,12.69-1.07"/><path class="cls-4" d="M1099.9,299.59a25.23,25.23,0,0,1,7.14-1.32c2.35-.06,4.24-.2,6.1-1.79a2.18,2.18,0,0,0,.33-2.62c-3.15-4.72-11-2.79-15.54-1.41s-2.57,8.62,2,7.14Z"/><path class="cls-4" d="M1136.94,269.15c-5-.13-11.88-1.35-16,2.2a2.87,2.87,0,0,0,0,4c4.07,3.54,11,2.33,16,2.2,5.42-.15,5.43-8.3,0-8.44Z"/><path class="cls-4" d="M1111.45,392.71l-10.16-5"/><path class="cls-4" d="M1114.66,389.49c-1.52-1.64-3.76-2.64-5.73-3.66a20.65,20.65,0,0,0-6.92-2.59c-1.83-.23-3.77,1.41-4.4,3a4.84,4.84,0,0,0,1,5.26c1.62,1.64,3.85,2.52,5.93,3.47a21.68,21.68,0,0,0,6.91,2.31c4.16.4,5.67-5.11,3.21-7.76Z"/></g><g id="Layer_4" data-name="Layer 4"><path class="cls-5" d="M861.34,425.24c9.13-8.24,13.65-20.52,15.53-32.68,5.44-35.27-10.35-73-39.28-93.87s-69.71-24-101.47-7.71c8.8-8.62,22.25-10.28,34.56-9.81,24.7.93,49.49,8.84,68.59,24.52s32,39.5,32.06,64.21c.09,23-10.36,46-4.81,68.33.7,2.82,1.66,5.71,1.16,8.58-1.1,6.2-8.87,9.26-15,7.66s-10.78-6.34-15.14-10.89L730.83,332.24c-6-6.23-12.19-12.9-14.05-21.32S719.42,292,728,290.74"/><path class="cls-5" d="M867,430.88c26.69-24.77,22.49-70.42,7.94-100.29-16.06-33-47.7-54.53-83.91-58.79a107,107,0,0,0-59.8,10.77l11.8,15.3c9.6-8.81,25.61-7.53,37.55-6A107.52,107.52,0,0,1,820,304.62c23.4,13.23,41.13,37.73,41.24,65.28.06,16.47-5.24,32.41-6.34,48.8-.54,8-.28,17.18,2.4,24.81.87,2.47-.38.57.87.37s-1.15.51-.6.46c-2.17.2-2.8.3-5.32-1.29-6-3.77-10.72-10.29-15.56-15.36l-18.43-19.31-36.87-38.62c-13.66-14.31-27.18-28.74-40.82-43.07-4.91-5.16-11.43-10.63-13.21-17.85a10.79,10.79,0,0,1,.08-4.73c1-2.75,1.54-2.72,3.35-3.11,5.62-1.18,8.88-7.79,7.43-13.09-1.61-5.86-7.44-8.57-13.09-7.43-19,3.83-23,26.88-15.51,41.89,4.16,8.37,11.21,15.19,17.65,21.82q11,11.34,22,22.7,22,22.71,43.93,45.54l21.94,22.79c6.64,6.9,13,14.35,20.2,20.68s16,10.75,25.78,8.69c9-1.9,16.51-9.13,16.85-18.65.17-4.83-1.61-9.26-2.37-14a61.69,61.69,0,0,1-.29-14.18c.68-9.42,2.85-18.65,4.26-28,2.83-18.73,2-36.48-5.51-54.07A101,101,0,0,0,841.75,295c-16-12.11-35.49-19.44-55.28-22.24-19.61-2.77-41.84-3.06-57.24,11.34-8.38,7.85,2.26,20.14,11.8,15.3,26.27-13.33,59.4-12.27,85,2.3,25,14.23,41.32,41.59,43.39,70.16,1.2,16.52-1.12,35.77-13.67,47.76-7.44,7.11,3.76,18.23,11.27,11.27Z"/><path class="cls-5" d="M729.63,295.21c19.18-8.18,39.85-16.54,60.28-12.37,9.2,1.88,17.71,6.23,25.68,11.2,22.11,13.77,41.37,33.33,50.71,57.64S873.79,405.32,858,426c-2.81,3.67-6.27,7.21-10.76,8.34-8.16,2-15.81-4.37-21.68-10.4a616.18,616.18,0,0,1-84.11-108.5c-5.87-9.63-11.25-22.77-3.82-31.25"/><path class="cls-5" d="M729.63,300.79c15-1.88,28.83-9.42,44-10.42s27.8,4.77,40.1,13c20.25,13.52,38.52,33,45.61,56.72a73.77,73.77,0,0,1,1.71,36.87,60.47,60.47,0,0,1-5.38,15.18c-2.06,3.94-6,12.25-11,13.17-4.62.85-9.7-5.14-12.52-8-5.5-5.58-10.82-11.37-16.06-17.2q-14.52-16.14-27.88-33.3C778,353.61,768.37,340,759.27,326c-4.37-6.72-9-13.46-12.59-20.62-1.7-3.35-5.25-10.82-2.39-14.46,3.16-4,3.92-9.47,0-13.39-3.3-3.3-10.18-4-13.39,0-11.18,14-5.19,30.49,3.26,44.29q13.71,22.38,29.37,43.49c10.52,14.23,21.59,28.07,33.25,41.39q8.94,10.21,18.32,20c5.47,5.73,11.13,11.68,18.46,15,18.17,8.14,32.09-7,39.37-22.17a86,86,0,0,0,7.91-45.73c-3.28-32-22.08-58.94-47.22-78.07-14.83-11.29-32-21.19-50.93-22.35-19.3-1.18-42,5.73-57,17.91-3.58,2.91-.76,10.11,3.94,9.53Z"/><path class="cls-5" d="M731.62,289.59c4.06-.4,6.83-4.44,7.74-8.41,1.9-8.28-2.13-17.27-8.89-22.4s-15.81-6.68-24.21-5.4c-5.65.86-11.46,3.2-14.63,8s-3.07,11.17-1.11,16.56,5.54,10,9.06,14.57c3.79,4.87,8.1,10.08,14.16,11.22,5.06.95,10.31-1.28,14.17-4.69s6.59-7.89,9.25-12.3,5.17-10.94,1.21-14.4"/><path class="cls-5" d="M731.62,292.68c3.18.3,5.76.69,8.52-1.27,3.25-2.31,5.21-6.05,6.22-9.84,1.95-7.36-.11-15.75-4.32-22-9.26-13.71-28.34-18.41-43.73-13.33-8.11,2.68-15.06,8.38-17.48,16.84-2.52,8.84-.12,18.08,4.33,25.86,8.5,14.86,22.8,30.82,41.47,22.73,9.12-4,15.42-12.45,20-21,4.39-8.28,7.3-23.14-4.9-26.35-4.72-1.24-10.18,1.55-11.37,6.46-.55,2.27-.25,3.83-.2,6.16.52,1.11.61,1.45.29,1a.55.55,0,0,0-.19-.21c-.51,2.18-2,4.18-3.19,6-2.19,3.5-5.56,9.48-10.24,10-4.24.46-7.89-5.59-10.15-8.35-3.44-4.2-7.87-9.23-8.18-14.92-.57-10.58,16.31-9.95,22.87-7.44a17.81,17.81,0,0,1,10.3,9.87,15.68,15.68,0,0,1,.94,7.81c-.21,1.29-1.45,5.63-2.51,6.19-2.93,1.56-1.27,5.5,1.56,5.76Z"/><path class="cls-6" d="M703.52,248.79a131.22,131.22,0,0,0-27.65-45.34c3.89-2.47,2.74-8.54.15-12.36-2.88-4.22-8-7.84-12.83-6.23a7.56,7.56,0,0,0,3.58,14.63,26.63,26.63,0,0,0-16.11,1.87A3.76,3.76,0,0,0,649,202.6a3,3,0,0,0-.25,2.3c.91,4,5.69,5.85,9.8,5.85s8.31-1.11,12.3-.11l19.8,41.56"/><path class="cls-7" d="M709.26,250.37c2-9.53-4.47-20.5-9.09-28.5A138.88,138.88,0,0,0,682,197.31V209.6c14.89-12-3.74-36.78-19.68-33.49a16.26,16.26,0,0,0,4.44,32.14c4.33-.28,8.07-3.11,8.6-7.59.47-3.94-1.92-8.89-6.27-9.62-10.18-1.69-31.68-.31-29.1,15,1,6,5.54,10.34,11.17,12.34,5.85,2.08,11.45-.18,17.24.88l-5.36-4.13,9.8,20.84c3.21,6.83,6,14.33,10,20.71,5.2,8.23,19.73,3.11,16.36-6.9-4.16-12.34-11.27-24.2-16.93-35.94-1.36-2.82-2.49-6.24-4.45-8.68-2.43-3-5.92-3.7-9.64-3.88-3-.15-5.87.41-8.82.48-.34,0-2.26-.15-2.28-.14-1.86,1,4.25-9.13.37,3.29l-2.28,3.91c1.34-1.33,7.12-1.27,9.24-.92l2.33-17.21c-2.06.14-.06-.22-.06,1.26s.1-.64,0,.61a.67.67,0,0,1-.83.4c-.85.06-.82.16.09.32.47,1,2.5,2.13,3.23,3.26,1.65,2.55-.21,1.35.56.73-3.75,3-2.92,9.13,0,12.29a130.3,130.3,0,0,1,15.84,20.81c2.32,3.8,4.42,7.73,6.54,11.64s3.72,8.18,7.2,10.95c3.2,2.54,9,2.21,10-2.63Z"/><path class="cls-7" d="M779.56,258.22a505.89,505.89,0,0,1-16.43-69.89,14.78,14.78,0,0,0,11.78-12.08c.79-6-3.08-12.31-8.86-14s-12.66,2-14.2,7.78c-1.42,5.33,1.36,10.77,4,15.58l-13.5-7.52a8,8,0,0,0-3.37-1.25c-2.74-.13-4.91,2.85-4.63,5.57s2.37,5,4.77,6.3a14,14,0,0,0,13.43-.12,231.22,231.22,0,0,1,22.65,61.83"/><path class="cls-7" d="M784.75,256.78c-.66-3.14-.66-6.28-1.42-9.41-.67-2.75-1.43-5.49-2.12-8.24q-2.16-8.72-4-17.52Q773.49,204,771,186.16l-5.69,10c8.71-1.89,16.08-8.82,17.71-17.71a21.6,21.6,0,0,0-12.42-23.44,20.23,20.23,0,0,0-23.7,6.49c-6.76,8.92-3.14,19.52,1.71,28.36l11.55-11.56c-5.84-3.26-12.28-8.25-18.89-9.64-7.39-1.55-14.19,4.24-15.16,11.43-1,6.93,3.5,13.18,9.49,16.25,6.93,3.55,14.46,2.9,21.32-.38l-11.7-3.07a243.41,243.41,0,0,1,12.79,29q2.65,7.33,4.83,14.83c1.51,5.27,2.4,10.82,4.41,15.91,1.51,3.84,4.74,6.6,9.1,5.95,3.89-.59,7.39-4,7.19-8.15-.54-11.44-5.07-23.38-9-34.05A232.91,232.91,0,0,0,760,184.3c-2.31-4.23-7.66-5.11-11.69-3.07-1.62.82-2.7.46-4.41.33a6.65,6.65,0,0,1-1.15-.64s-1,3.54-.57,3.37l-4.27,1.16c1-.11,4.18,2.15,5.3,2.78l8.45,4.7c7.44,4.13,15.64-4.13,11.55-11.56-1-1.87-6.49-13.58.89-10.87,6.1,2.25.56,9-3.11,10-4.52,1.19-6.5,5.73-5.7,10q3.29,17.64,7.75,35,2.15,8.23,4.55,16.39c.9,3,1.78,6.06,2.77,9.05s2.79,5.69,4,8.69c2.59,6.29,11.87,4.09,10.39-2.87Z"/><path class="cls-5" d="M789.64,270.3a39.59,39.59,0,0,1-15.92-1,7.15,7.15,0,0,1-3.88-2.09c-2.3-2.88.82-7.45,4.47-7.9s7.08,1.67,10.15,3.7c-2.7,3.47-8.9,3.15-11.24-.57,2.83-4.48,10.26-4.92,13.6-.81,1.86-.26,2.07-3.22.61-4.41s-3.55-1.07-5.4-.79A55.1,55.1,0,0,0,769.3,260c-.95.39-2.08.8-2.93.24-1.81-1.18.36-3.87,2.41-4.56a24.72,24.72,0,0,1,21.78,3.17"/><path class="cls-5" d="M789.64,265.94a23.39,23.39,0,0,1-7.52-.41c-.58-.12-6.83-1.83-6.86-1.79,1.08-1.58.52,2.87.26,2.52.66.9,4.24,2.18,5.36,2.89L779.44,258c-.88.95-.82.08-1.27-.49l1.1,8.48c.29-.4,1.87-.27,2.65.55,2.34,2.44,5.55,2.28,8.39,1.08,7.41-3.14,5.84-13.87-.59-17-3.57-1.74-7.4-1.22-11.16-.52a54.74,54.74,0,0,0-6.42,1.6c-1,.33-2.1.69-3.13,1.08q-3.88.93,1.61,1.93l2,4.84c-1.42,1.33-1.61,2.11-.55,2.36a10.89,10.89,0,0,1,2.66-.45,16.87,16.87,0,0,1,4.2.13c3.49.55,6.61,2.34,9.91,3.51,6.42,2.27,10.4-6.39,6.29-10.81-7.3-7.87-26.43-10.35-33.84-1.34-4.26,5.16-2.33,13,4.69,14.14,3.31.53,6-.89,9-1.89,1.58-.51,3.17-.95,4.79-1.32.81-.19,1.62-.36,2.43-.5,3.5-.14,4.41-2.93,2.76-8.39l6.73,1.78c-7.19-7.57-18.56-5.65-24.53,2.17a6.72,6.72,0,0,0,0,7.06c5.44,7.21,15.69,9,22.31,2.07a7.21,7.21,0,0,0-1.44-11.17c-4.83-3.2-10.8-5.8-16.66-4-4.88,1.48-8.93,6.32-9.14,11.47-.57,14,20,11.38,28.54,10.19,4.82-.68,3.74-9-1.15-8.57Z"/></g><g id="Layer_6" data-name="Layer 6"><path class="cls-8" d="M941.9,227.45l81.76-24.12-35.31,47.45c-9.3,12.49-18.65,25.07-25.45,39.06a183.55,183.55,0,0,0-11.55,32.25c-4.37,16-7.6,32.75-5.53,49.25S956,404.24,970,413.09c6.67,4.19,16.3,6.14,21.8.51,2.32-2.37,3.42-5.66,4.3-8.86C1006,369,997.4,331,986,295.7c-8.5-26.32-19.08-53-38.67-72.49a20.94,20.94,0,0,0,24.9-.11l-7.75,24.63a40.59,40.59,0,0,0,15.86-22l-5.9,16.95a24.86,24.86,0,0,0,14.18-18.38,152.71,152.71,0,0,0-10,32.58"/><path class="cls-8" d="M943.49,233.24c27.78-6.23,55-14.28,82.28-22.25l-9-11.66-33.11,44.19c-9.92,13.25-20.12,26.48-27.53,41.35-7.67,15.38-12.81,32.22-16.28,49-3.4,16.43-4.72,33.77-.06,50.1,4,14.22,12.33,27.23,24.67,35.59s30.77,8.81,37.66-6.46c3.24-7.18,4.59-15.43,5.75-23.18a154,154,0,0,0,1.72-26.1c-.39-17.67-3.59-35.07-8.18-52.1-9.22-34.18-21.32-70.13-46.83-95.78l-12.44,16.12c10.23,7,25,6.89,35-.63l-14.21-10.92c-2.4,8.26-4.93,16.48-7.47,24.7-2.28,7.37,7,15.49,13.79,10.6a52.43,52.43,0,0,0,20-27.62c3.51-11.48-14-16.1-17.85-4.92l-5.81,17c-2.8,8.16,6.83,13.59,13.47,10.35a33.37,33.37,0,0,0,18.4-26.3c.52-4.31-3.77-8.23-7.67-8.69a8.92,8.92,0,0,0-9.71,6.34c-4,11.94-6.91,23.19-4.45,35.75.54,2.78,4.3,2.81,5.65.74,6.14-9.42,9.77-19.76,15-29.67L980.11,222c-1.64,6-4.55,10.09-10.28,12.82l13.47,10.35,6-16.93-17.85-4.92a31.43,31.43,0,0,1-11.67,16.33l13.8,10.6c2.62-8.2,5.25-16.39,8-24.55,2.63-7.75-7.33-15.66-14.21-10.92-5,3.46-10,3.17-14.84-.4-9.61-7-20.37,8-12.44,16.12,18.73,19.1,28.51,44.71,36.63,69.71,9.15,28.21,17.06,58.46,13.95,88.35a79.25,79.25,0,0,1-1.83,10.37c-.6,2.47-1,6.09-2.65,8.17-2.79,3.53-8.89.53-11.88-1.3-9.78-6-15.78-16.9-18.64-27.73-3.66-13.92-2.09-28.65,1-42.52,3.23-14.69,7.47-29.62,14.21-43.11,7.28-14.59,17.21-27.63,26.87-40.69l32.8-44.38c4.22-5.7-2.74-13.52-9-11.66-27.31,8.15-54.52,16.15-81.25,26-7.18,2.64-4.44,13.28,3.19,11.57Z"/><path class="cls-8" d="M964,310.14l1.13-8.48q-1.7,13.36-3.4,26.72c-1.4,11-1.87,24.3,7.12,30.79"/><path class="cls-8" d="M969.33,311.61a43.09,43.09,0,0,1,1.92-8.26L959,300c-2.21,12.65-5,25.8-5.14,38.68-.11,7.88,2.41,26.28,13.94,24.94,2.91-.34,5.1-2.13,5.23-5.23.18-4.14-2.81-7.15-3.91-10.95a37.27,37.27,0,0,1-1-12.23c.55-11.19,2.46-22.34,3.35-33.52.66-8.21-13.49-8.12-12.68,0a43.72,43.72,0,0,1-.32,8.48c-.59,6.15,9.81,7.62,10.86,1.47Z"/><path class="cls-9" d="M968.46,394.72c.7-.51-.55-1.74-1-1"/><path class="cls-8" d="M971.87,400.55a9,9,0,0,0,1.51-1.18,5.19,5.19,0,0,0,1.47-2.29,9,9,0,0,0,.36-.88.09.09,0,0,0,0-.05l.25-1.81a9.83,9.83,0,0,0-.25-2,6.69,6.69,0,0,0-.82-2,7.7,7.7,0,0,0-2.71-2.73,5.06,5.06,0,0,0-2.56-.82,5.15,5.15,0,0,0-2.75.12A5.29,5.29,0,0,0,964,388.2a5.17,5.17,0,0,0-1.77,1.94l-.7,1.64a7.1,7.1,0,0,0,0,3.66l.7,1.64a6.8,6.8,0,0,0,2.47,2.47l.18.13-1.39-1.07a.77.77,0,0,1,.18.18l-1.07-1.38a.54.54,0,0,1,.11.18l-.68-1.63a.75.75,0,0,1,0,.16l-.24-1.81v.13l.24-1.81a.5.5,0,0,1,0,.13l.68-1.62,0,.09,1.06-1.37-.08.08a5.09,5.09,0,0,0-1.4,2.18,5.15,5.15,0,0,0-.58,2.6l.24,1.79a5.06,5.06,0,0,0,1.21,2.3,3.42,3.42,0,0,0,1.21,1.21,5.16,5.16,0,0,0,2.3,1.21l1.79.24a6.79,6.79,0,0,0,3.41-.92Z"/><path class="cls-9" d="M966.89,388.93c0-2.08-3.87-1.73-4.1.33s2,3.66,4.12,3.71a5.78,5.78,0,0,0,5.84-4.78c.3-2.74-2.37-5.53-5.08-5s-4,4.6-1.88,6.37,6.07-.82,5.06-3.39a2.93,2.93,0,1,0-3.33,3.94"/><path class="cls-8" d="M972.37,388.93c.19-3.54-2.31-5.9-5.37-7l3.5,2.7c-3.22-5.67-11.51-3.56-13.75,1.75-2.39,5.65,1.71,11.57,7.29,13.1A12.92,12.92,0,0,0,977.88,394a11.66,11.66,0,0,0-1.76-14.67,10.9,10.9,0,0,0-15-.39A11.29,11.29,0,0,0,959,392.57c2.93,4.92,9.39,6,14.16,3.2,5.31-3.17,6.92-10.58,2.37-15.16-4.29-4.31-12.28-4.18-15.66,1.24-3.23,5.18-.89,13.8,5.86,14.72,3.36.46,6.49-.52,7.91-3.88,1.23-2.9.24-6.85-2.74-8.37-1-.56-.63-.13,1.15,1.31-.41-.63-.38-.48.08.45a4.42,4.42,0,0,1-3,5.14c-4.76,1.44-7.24-5.59-3.33-8-.68.39-.51.33.51-.17a4.46,4.46,0,0,1,3.47.53c.8.48,2.29,3.76,1.91,2.31a3.55,3.55,0,0,1,0,2.14c.22-.73.14-.56-.25.51-.73.84-.84,1-.32.45a3.87,3.87,0,0,1-3,1.24,2.93,2.93,0,0,1-1.52-.48c-.67-.61-.72-.64-.15-.1a3.14,3.14,0,0,1-.62-2.76c-.19.63-.2.69,0,.17a1.58,1.58,0,0,1,.56-.88c-.57.53-.52.51.12,0-.68.37-.64.36.14,0-.78.18-.71.18.2,0,1,.18,1,.16.27,0a3.37,3.37,0,0,1,2.35,3.21,4.77,4.77,0,0,1-2.2,4.08q-2.08.9.64-.26a7.62,7.62,0,0,0,2.53-2.58l-5.06,2.9a4.47,4.47,0,0,1-3.84-3c1.76,6.07,10.44,4.67,10.77-1.45Z"/><path class="cls-9" d="M964,387.71c-1.8,1.73.61,5.19,3,4.61s3.46-3.78,2.47-6.06a2.47,2.47,0,1,0-.92,4.57"/><path class="cls-10" d="M962,382.9l-.15,0c-2.06.29-3.46,2.32-4.1,4.1-1.95,5.43,3,11.32,8.43,11.47,5.66.16,9.56-4.88,9.8-10.18a10.14,10.14,0,0,0-.47-3.42,6.91,6.91,0,0,0-4.68-4.72,8.85,8.85,0,0,0-8.72,2.12,8.57,8.57,0,0,0-2.19,8.55c1,3.44,4.55,6.35,8.28,5.89a6.3,6.3,0,0,0,4.16-1.73,6.07,6.07,0,0,0,1.62-3.37,5.94,5.94,0,0,0-4.21-6.46,3.77,3.77,0,0,1,1.57.91c-.15-.17-.31-.32-.47-.47,1.1.52,1.21,2.71,1,3.66a3.81,3.81,0,0,1-2.71,2.8c.63-.16.37-.14-.79.08a3.89,3.89,0,0,1-2-.56l-2.84-3.69c0,.06.34.8.28.85s-.12-1.81-.12-.59.14-.57.12-.59a3.17,3.17,0,0,1-.12.44q-.21.69.36-.78c-.16.18-.68,1,0,.12.37-.46.41-.52.1-.19l.8-.6c-.82.54,1.42-.32.42-.14l1.09-.15c1.14.21,1.46.25,1,.13s1.42.83.61.25c.21.15,1.19,1.05.51.34-.48-.49.82,1.3.4.47s.35,1.48.18.5c0,.21.05,1.67.15.73a5.64,5.64,0,0,0-.78-3.08c-1.28-2.42-4-3.07-6.48-2.71Z"/><path class="cls-9" d="M941.85,369.46c14.07-20,41.58-29.45,65-22.28"/><path class="cls-10" d="M946.06,371.92c6.84-8.94,18.47-15.42,29.23-18.26a58.54,58.54,0,0,1,16.3-1.88c6,.14,12.84,3.53,18.31.66,2.94-1.54,3.76-5.58,2.19-8.34-3.55-6.21-14-6.21-20.5-6.28a63.07,63.07,0,0,0-21.17,3.5C956.36,346.19,946,354.79,937.64,367c-3.61,5.29,4.71,9.77,8.42,4.92Z"/><path class="cls-9" d="M953.44,308.75a78.35,78.35,0,0,0,23.89,11.83"/><path class="cls-10" d="M949.79,312.39a75.47,75.47,0,0,0,14.46,9.33c4.42,2.07,10.7,5.93,15.26,2.58,1.47-1.08,2.65-2.95,2-4.87-1.8-5.17-6.81-5.61-11.36-7.59A96.31,96.31,0,0,1,956,304.29c-4.82-3.13-10.9,4.46-6.25,8.1Z"/><path class="cls-9" d="M956.84,327.61q7.06-12.92,12.9-26.44"/><path class="cls-10" d="M960.2,329.57c4.95-8,12.92-18.51,12.35-28.4a2.85,2.85,0,0,0-4.8-2C964,302.31,962,307,960,311.36c-2.24,4.73-4.27,9.55-6.5,14.28-2.11,4.48,4,8.25,6.72,3.93Z"/><path class="cls-9" d="M972.56,290.53A32.88,32.88,0,0,1,990,303.84"/><path class="cls-10" d="M971.24,295.32c6.16,2.42,9.56,7.27,14.59,11.17,1.79,1.39,4,2,6.06.79a5,5,0,0,0,2.3-5.66c-3-8.43-12.15-13.55-20.31-15.89-6.28-1.8-8.46,7.3-2.64,9.59Z"/><path class="cls-9" d="M973.75,293.73a30.25,30.25,0,0,0,8.39-17.87"/><path class="cls-10" d="M976.31,296.28a35.42,35.42,0,0,0,6.86-10.43c1.68-4,2.17-6.83.39-10.82a1.65,1.65,0,0,0-2.58-.33,21.9,21.9,0,0,0-2.46,3.17c-.75,1.44-1,3.12-1.64,4.62a27.53,27.53,0,0,1-5.68,8.68c-3.19,3.38,1.93,8.51,5.11,5.11Z"/><path class="cls-9" d="M958.43,290.16l15.2,1.17"/><path class="cls-10" d="M958.43,294.47c4,.51,18.48,4.27,18.48-3.14,0-3.61-3.86-4.54-6.68-5-3.82-.63-7.93-.36-11.8-.47a4.36,4.36,0,0,0-4.31,4.31c0,2.57,2,4,4.31,4.31Z"/><path class="cls-9" d="M971.6,281.18l-7.81,17.62"/><path class="cls-10" d="M968,279.05c-1.62,3.44-3.43,6.85-4.8,10.4-1.21,3.13-2.67,6.68-1.81,10a2.56,2.56,0,0,0,3.72,1.51c3-1.58,4.73-5.2,6.16-8.14,1.67-3.41,3-7,4.44-10.55,1.83-4.38-5.68-7.57-7.71-3.25Z"/><path class="cls-9" d="M987.52,319l9.16,7.21"/><path class="cls-10" d="M984.75,323.73a42.56,42.56,0,0,0,7.18,4.9,5,5,0,0,0,5.91-.77l.06-.06-4,1.07c1.8.31,3.72.67,5-1s.44-3.43-.3-5.13V327l.06-.09c1.24-2,.59-4.25-.77-5.91a42.05,42.05,0,0,0-6.44-5.84c-2.53-2.06-6-2.25-8.18.55s-1.07,6.07,1.53,8.06Z"/><path class="cls-9" d="M982.29,327.53l17.78-13.85"/><path class="cls-10" d="M984.59,331.45l8.94-6.84c2.87-2.2,6.12-4.26,8.47-7a4.31,4.31,0,0,0-5.2-6.73c-3.27,1.59-6.06,4.24-8.9,6.48l-8.82,7c-4,3.17,1.41,10.29,5.51,7.14Z"/></g><g id="Layer_7" data-name="Layer 7"><path class="cls-11" d="M1034.39,265.59q3.25,22.55,5.48,45.23l10.19-3.17c1-.32,2.21-.77,2.56-1.8a3.47,3.47,0,0,0-.22-2.21q-6.37-19.58-12.76-39.14a14.78,14.78,0,0,1-17.74,2c-2.41-1.51-4.49-4.22-3.87-7a7.81,7.81,0,0,1,3-4.07c2.68-2.2,6-3.88,9.48-3.77s7,2.44,7.69,5.85a136.88,136.88,0,0,1,.19-15.82c.22-3.11.93-6.78,3.78-8,3.11-1.37,6.81,1.43,7.51,4.75s-.76,6.72-2.53,9.61-3.93,5.64-4.88,8.9c2.54-2.07,5.18-4.19,8.32-5.12s7-.39,9,2.18c2.94,3.68.45,9.76-3.91,11.53s-9.49.14-13.22-2.74"/><path class="cls-11" d="M1028.44,265.59c-.58,15,2.55,30.35,4,45.23.45,4.57,4.39,8.69,9.38,7.14,4.61-1.43,10.87-2.29,14.68-5.44,4.88-4,3.52-9.34,1.81-14.58-3.85-11.8-7.44-23.68-11.14-35.52-1.82-5.85-8.62-7.38-13.08-3.46a6.16,6.16,0,0,1-3.68,1.54c-1,.09-3.93-1.28-4.37-1.15s0,2.64.11,2.65c.38.05,2.18-1.51,2.81-1.77a3.85,3.85,0,0,1,1.51-.18c-.44,0-.2.22-.36-.28,2.71,8.72,16.71,7.5,16.4-2.22-.12-3.63-.14-7.25,0-10.88.06-1.46.61-3.51.29-4.94a4.05,4.05,0,0,1,.23-1.15q1.2-3.47-5.29.58l-.47-1a4.19,4.19,0,0,1-.47,1.58c-.67,1.15-1.29,2.33-2,3.47a47.56,47.56,0,0,0-4.86,9.5c-1.28,3.54.85,7.91,4,9.72,3.55,2.07,7.41,1.07,10.43-1.35,1.16-.93,4.13-1.93,4.79-2.93.93-1.38.49,3,0-.88.09.64-1.5-2.57-.67-2,.41.26-1.12.4-1.26.35-2.21-.74-4.34-1.79-6.49-2.68-8.18-3.44-13,8.32-8,13.78,10.41,11.43,32.45,6.42,32.9-10.39.21-7.51-5.24-13.6-12.43-15.09-8.21-1.7-14.89,2.81-20.94,7.71l14.38,8.38c2.4-6.78,7.93-11.32,7.85-19.13a15.48,15.48,0,0,0-11.59-14.94c-18.43-4.33-17.46,21.4-17,32.37l16.4-2.22a16.9,16.9,0,0,0-19.44-11.62c-7.42,1.31-15.57,7-16.95,14.72-1.55,8.7,5.85,15.61,13.66,17.59s15.87-.61,21.68-6l-13.08-3.45,7,20.43c1,3.09,2.12,6.18,3.16,9.28.88,2.63,3.18,6.83,3,9.56l1-3.74q3.7-2.55.16-1.07l-2.55.79-5.94,1.85,9.37,7.14c-1.52-15.4-2.19-32.08-7.14-46.81-2.12-6.34-11.42-5.27-11.69,1.58Z"/><path class="cls-11" d="M916.65,440.47a346.22,346.22,0,0,1,13.27,37.8A13,13,0,0,1,941,471.8c0-12.79-16.93-19.1-20.62-31.35-1.71,3.11-5.63,4.55-9.15,4.07s-6.63-2.57-9.13-5.09c-4-4-6.18-11.82-1.28-14.73,3-1.75,7-.38,9.23,2.22s3.11,6.1,3.75,9.47q-.48-15.51-1-31a5.51,5.51,0,0,1,.46-2.94c1.78-3.07,6.56-.11,7.94,3.16,3.59,8.5,1.52,18.33-1.89,26.9.88-6.78,10-10.83,15.63-6.94,1.92,1.33,3.4,3.83,2.45,5.95a5.76,5.76,0,0,1-3.39,2.68,17.49,17.49,0,0,1-9.87.73"/><path class="cls-11" d="M910.1,442.28c4.95,12.41,9.08,25.09,13,37.88a7.21,7.21,0,0,0,13,1.7,6.4,6.4,0,0,1,4.9-3.17c3.51-.32,7.15-2.91,6.88-6.89-.5-7.53-3.6-13.23-8.45-18.89-3.88-4.54-9.4-8.72-11.21-14.62-2.19-7.11-10.83-7.51-14.86-1.94-.2.27-2.82-.72-3.53-1.19-1.57-1-2-2.94-3.24-3.92.07.06-.17-.81-.32-.84a2.09,2.09,0,0,1-2,1.66q-1.34,0-.39.36c-.05.15,1.74,5.29,1.92,6.18,1.85,9.19,16.62,7.1,16.31-2.21l-.54-16.47-.26-7.76c-.07-2.27-.72-5.34-.06-7.53l-2.12,3.64-.11.07-4.16,1.12c-1.36.08-1.09-1-.45,1.57a20.38,20.38,0,0,1,.47,6.28c-.3,4.5-1.81,8.83-3.38,13l15.7,4.33c.21-1.16.23-1.75,1.35-2.39.4-.23.93-.16,1.3-.46,1.08-.9.54.91.46.43v-4.09q3-2,.86-1.22a7.25,7.25,0,0,1-2,.4,32,32,0,0,1-5-.16c-8.85-.53-10.3,12.88-2.06,15.19,6.91,1.94,15.58.51,20.48-5.05,5.13-5.8,2.45-14.58-3.68-18.48-10.19-6.49-24.85-.25-27.41,11.5-2.28,10.43,11.9,13.94,15.7,4.33,4.79-12.13,8.58-37.51-9.17-41.44a10.86,10.86,0,0,0-10.55,3.39c-3.18,3.56-2.9,8.16-2.77,12.63q.41,13.58.79,27.14l16.32-2.2c-1.66-8.4-6.08-16.5-15.15-18.28-9.5-1.86-17.33,5.77-16.93,15.13.76,18,26.67,30.7,37.67,13.51l-14.86-1.94c2.47,6.66,6.77,11.71,11.9,16.5,3.48,3.26,9.56,7.41,9.67,12.69l6.89-6.89a20.81,20.81,0,0,0-17.2,9.77l13,1.7A308.41,308.41,0,0,0,922.52,437c-3-7-15.28-1.93-12.42,5.24Z"/><path class="cls-11" d="M847.69,229.52a52,52,0,0,1,7.09,8.41l20.1,27.61a33,33,0,0,1,6.3-26.4,36.16,36.16,0,0,1-25.85-15.45,36.49,36.49,0,0,0,7.72-20.63c.13-2.53-.12-5.33-1.91-7.12-3.77-3.76-10.78.85-11,6.16S853.54,212,857,216c-5.22-.12-9-4.78-12.88-8.25S833.59,202,830.27,206c-2.07,2.51-1.6,6.3-.18,9.23,1.52,3.12,4.23,5.9,7.66,6.46s7.35-1.87,7.53-5.34c-6.53-2.83-14.72,2-16.65,8.85s1.56,14.45,7.25,18.73c1.62,1.23,3.8,2.26,5.64,1.38,1.24-.6,1.94-1.89,2.79-3,2.16-2.77,5.54-4.39,7.7-7.16s2.25-7.8-1.08-8.93"/><path class="cls-11" d="M841.94,232.88c8.38,12.41,17.08,24.68,25.95,36.75,5.46,7.43,16.45,3.05,14.8-6.24-1.31-7.33,1-14.37,5.38-20.22,2.86-3.79,0-11.06-4.77-11.72-8.33-1.14-15.89-4.93-20.77-12v8.41a44.54,44.54,0,0,0,9-23.25c.75-8.62-3.3-18.23-13.13-18.66-7.54-.34-14.6,5.52-16.46,12.69-2.32,9,3.48,17.07,9,23.49L857,207.32c-2.3-.24-5.06-4.32-6.7-5.74a25.83,25.83,0,0,0-11-6c-8.71-2-17.27,2.84-18.94,11.83-1.6,8.58,3.74,17.86,11.46,21.55,8.63,4.12,20.13-.42,22-10.25a9.2,9.2,0,0,0-6.22-10.95c-9.78-3.57-20.9,1.75-25.83,10.57-5.47,9.81-2.07,22.46,5.52,30.11,4.32,4.35,10.38,7.48,16.59,5.57,4.75-1.46,8.07-6.68,11.79-9.85,8.62-7.33,9.86-22.06-2.5-26.2-9.71-3.26-14.2,10.43-6.61,15.67,1.77,1.23-3.87-3.89-1.78-3.91a21.9,21.9,0,0,0-2.44,2.18c-1.16,1-2.39,1.84-3.46,2.92l-1,1.12q-2.79,3.08-.24,1h4.8c-6.6-1-7.31-14.75.42-12l-6.22-11,1.3-1c1.6.34,1.91.21.92-.37a18.32,18.32,0,0,1-1.26-2.44c.58.25-2.07,1.81-1.82,2.54.17.45,1.66.84,2.14,1.17,3,2.08,5.24,5.1,8.3,7.16A22.3,22.3,0,0,0,857,224.72c8.15.79,10.61-9.73,6.16-14.86-.24-.27-6.77-11.21-8.71-8.34-.36.53-.1,3.23-.22,4a28.77,28.77,0,0,1-1.13,4.66,32,32,0,0,1-5,9.28,8.08,8.08,0,0,0,0,8.41,46.08,46.08,0,0,0,33,19.22l-6.89-12c-7,9.54-9.16,21-7.22,32.57l14.8-6.23c-5-6.94-10.17-13.74-15.28-20.6-4.55-6.11-8.87-13.11-15.55-17.09-5.5-3.28-12.91,3.46-9.1,9.11Z"/><path class="cls-11" d="M797.79,529c105.2-10.86,210.4-21.83,315.51-33.62q44.65-5,89.26-10.5l-7.3-9.59c-4.91,11.66-16.47,19.93-26.87,26.32a182.25,182.25,0,0,1-34.76,16.13c-25.92,9.21-53.22,14.69-80.13,20.08q-44.13,8.84-88.79,14.64c-14,1.8-29.85,5.32-43.77,1.51-13.1-3.59-24.13-11.85-37.87-13.57-7.52-.95-15.15-.08-22.65-1-7.09-.91-12.63-4.71-18.38-8.7-12.81-8.88-26.92-14.91-42.78-14.08-11.36.6-11.2,16.62,0,17.53a70,70,0,0,1,19.43,4.21c6.43,2.51,11.9,6.68,17.65,10.41s11.65,6.57,18.29,7.72c7.43,1.29,14.87.74,22.37.94,14.07.38,25.46,8.82,38.72,12.36,14.8,3.95,30.2,1.46,45.1-.44q46.81-6,93.13-15.11c28.18-5.61,56.82-11.3,83.94-21a182.87,182.87,0,0,0,41-20.25c12.14-8.22,24.17-18.08,30.17-31.83,2-4.61-.17-12.1-6.54-11.4-105.24,11.55-210.34,24.38-315.46,37q-44.64,5.35-89.31,10.56c-7.37.86-7.55,12.49,0,11.72Z"/></g></svg>